# xmcd CD database file
#
# Track frame offsets:
#	150
#	21200
#	41460
#
# Disc length: 831 seconds
#
# Revision: 2
# Processed by: cddbd v1.5.2PL0 Copyright (c) Steve Scherf et al.
# Submitted via: CDex 1.70beta2
#
DISCID=1a033d03
DTITLE=GeNTLe BReeZe - Feel me,See me,Hold me
DYEAR=1996
DGENRE=JPop
TTITLE0=Feel me,See me,Hold me
TTITLE1=かけがえのない明日
TTITLE2=Feel me See me,Hold me(original karaoke)
EXTD=YEAR: 1996
EXTT0=
EXTT1=
EXTT2=
PLAYORDER=
